<svg xmlns="http://www.w3.org/2000/svg" width="1920" height="1080"><path d="M-473,-531L-28,-512L380,-537Z" fill="#eeeeee" stroke="#eeeeee" stroke-width="1.51"/><path d="M380,-537L1103,-428L1577,-525Z" fill="#c3c3c3" stroke="#c3c3c3" stroke-width="1.51"/><path d="M-87,1547L-368,1554L1898,1601Z" fill="#666666" stroke="#666666" stroke-width="1.51"/><path d="M780,1532L-87,1547L1898,1601Z" fill="#575757" stroke="#575757" stroke-width="1.51"/><path d="M1574,1504L1159,1480L1898,1601Z" fill="#3e3e3e" stroke="#3e3e3e" stroke-width="1.51"/><path d="M1159,1480L780,1532L1898,1601Z" fill="#484848" stroke="#484848" stroke-width="1.51"/><path d="M2014,1061L1898,1601L2322,1102Z" fill="#373737" stroke="#373737" stroke-width="1.51"/><path d="M1914,406L2329,746L2367,349Z" fill="#5b5b5b" stroke="#5b5b5b" stroke-width="1.51"/><path d="M1577,-525L1994,-471L2375,-515Z" fill="#929292" stroke="#929292" stroke-width="1.51"/><path d="M2322,1102L1898,1601L2410,1566Z" fill="#242424" stroke="#242424" stroke-width="1.51"/><path d="M2367,349L2329,746L2410,1566Z" fill="#3f3f3f" stroke="#3f3f3f" stroke-width="1.51"/><path d="M2329,746L2322,1102L2410,1566Z" fill="#333333" stroke="#333333" stroke-width="1.51"/><path d="M1991,-76L2367,349L2416,-134Z" fill="#707070" stroke="#707070" stroke-width="1.51"/><path d="M2375,-515L1994,-471L2416,-134Z" fill="#7e7e7e" stroke="#7e7e7e" stroke-width="1.51"/><path d="M1994,-471L1991,-76L2416,-134Z" fill="#808080" stroke="#808080" stroke-width="1.51"/><path d="M2367,349L2410,1566L2416,-134Z" fill="#4d4d4d" stroke="#4d4d4d" stroke-width="1.51"/><path d="M1914,406L1970,760L2329,746Z" fill="#5a5a5a" stroke="#5a5a5a" stroke-width="1.51"/><path d="M2014,1061L2322,1102L2329,746Z" fill="#404040" stroke="#404040" stroke-width="1.51"/><path d="M1991,-76L1914,406L2367,349Z" fill="#717171" stroke="#717171" stroke-width="1.51"/><path d="M1970,760L2014,1061L2329,746Z" fill="#4d4d4d" stroke="#4d4d4d" stroke-width="1.51"/><path d="M1598,1128L1574,1504L1898,1601Z" fill="#404040" stroke="#404040" stroke-width="1.51"/><path d="M1914,406L1519,686L1970,760Z" fill="#6c6c6c" stroke="#6c6c6c" stroke-width="1.51"/><path d="M1610,281L1914,406L1991,-76Z" fill="#828282" stroke="#828282" stroke-width="1.51"/><path d="M1581,-15L1610,281L1991,-76Z" fill="#8f8f8f" stroke="#8f8f8f" stroke-width="1.51"/><path d="M1577,-525L1581,-15L1991,-76Z" fill="#9a9a9a" stroke="#9a9a9a" stroke-width="1.51"/><path d="M1577,-525L1991,-76L1994,-471Z" fill="#979797" stroke="#979797" stroke-width="1.51"/><path d="M1970,760L1598,1128L2014,1061Z" fill="#545454" stroke="#545454" stroke-width="1.51"/><path d="M1598,1128L1898,1601L2014,1061Z" fill="#444444" stroke="#444444" stroke-width="1.51"/><path d="M1519,686L1598,1128L1970,760Z" fill="#646464" stroke="#646464" stroke-width="1.51"/><path d="M1610,281L1519,686L1914,406Z" fill="#7c7c7c" stroke="#7c7c7c" stroke-width="1.51"/><path d="M354,1472L-87,1547L780,1532Z" fill="#6e6e6e" stroke="#6e6e6e" stroke-width="1.51"/><path d="M380,-537L742,-407L1103,-428Z" fill="#cfcfcf" stroke="#cfcfcf" stroke-width="1.51"/><path d="M1081,800L1131,1107L1519,686Z" fill="#767676" stroke="#767676" stroke-width="1.51"/><path d="M1103,-428L1235,-1L1577,-525Z" fill="#b1b1b1" stroke="#b1b1b1" stroke-width="1.51"/><path d="M1577,-525L1235,-1L1581,-15Z" fill="#a4a4a4" stroke="#a4a4a4" stroke-width="1.51"/><path d="M1519,686L1131,1107L1598,1128Z" fill="#696969" stroke="#696969" stroke-width="1.51"/><path d="M1159,1480L1574,1504L1598,1128Z" fill="#4c4c4c" stroke="#4c4c4c" stroke-width="1.51"/><path d="M1131,1107L1159,1480L1598,1128Z" fill="#5d5d5d" stroke="#5d5d5d" stroke-width="1.51"/><path d="M1210,311L1519,686L1610,281Z" fill="#888888" stroke="#888888" stroke-width="1.51"/><path d="M1581,-15L1235,-1L1610,281Z" fill="#999999" stroke="#999999" stroke-width="1.51"/><path d="M1235,-1L1210,311L1610,281Z" fill="#9a9a9a" stroke="#9a9a9a" stroke-width="1.51"/><path d="M1210,311L1081,800L1519,686Z" fill="#858585" stroke="#858585" stroke-width="1.51"/><path d="M786,405L1081,800L1210,311Z" fill="#959595" stroke="#959595" stroke-width="1.51"/><path d="M1103,-428L702,-140L1235,-1Z" fill="#b9b9b9" stroke="#b9b9b9" stroke-width="1.51"/><path d="M786,405L1210,311L1235,-1Z" fill="#a4a4a4" stroke="#a4a4a4" stroke-width="1.51"/><path d="M702,-140L786,405L1235,-1Z" fill="#b3b3b3" stroke="#b3b3b3" stroke-width="1.51"/><path d="M698,1162L780,1532L1131,1107Z" fill="#6d6d6d" stroke="#6d6d6d" stroke-width="1.51"/><path d="M1131,1107L780,1532L1159,1480Z" fill="#5d5d5d" stroke="#5d5d5d" stroke-width="1.51"/><path d="M786,405L726,683L1081,800Z" fill="#959595" stroke="#959595" stroke-width="1.51"/><path d="M742,-407L702,-140L1103,-428Z" fill="#c6c6c6" stroke="#c6c6c6" stroke-width="1.51"/><path d="M1081,800L698,1162L1131,1107Z" fill="#797979" stroke="#797979" stroke-width="1.51"/><path d="M726,683L698,1162L1081,800Z" fill="#888888" stroke="#888888" stroke-width="1.51"/><path d="M398,662L335,1123L698,1162Z" fill="#929292" stroke="#929292" stroke-width="1.51"/><path d="M398,662L698,1162L726,683Z" fill="#959595" stroke="#959595" stroke-width="1.51"/><path d="M698,1162L354,1472L780,1532Z" fill="#6e6e6e" stroke="#6e6e6e" stroke-width="1.51"/><path d="M702,-140L426,-52L786,405Z" fill="#c1c1c1" stroke="#c1c1c1" stroke-width="1.51"/><path d="M426,-52L370,372L786,405Z" fill="#bebebe" stroke="#bebebe" stroke-width="1.51"/><path d="M398,662L726,683L786,405Z" fill="#a3a3a3" stroke="#a3a3a3" stroke-width="1.51"/><path d="M370,372L398,662L786,405Z" fill="#afafaf" stroke="#afafaf" stroke-width="1.51"/><path d="M380,-537L426,-52L702,-140Z" fill="#d4d4d4" stroke="#d4d4d4" stroke-width="1.51"/><path d="M380,-537L702,-140L742,-407Z" fill="#d4d4d4" stroke="#d4d4d4" stroke-width="1.51"/><path d="M335,1123L354,1472L698,1162Z" fill="#7f7f7f" stroke="#7f7f7f" stroke-width="1.51"/><path d="M35,-79L-108,315L370,372Z" fill="#cecece" stroke="#cecece" stroke-width="1.51"/><path d="M-28,-512L35,-79L380,-537Z" fill="#e6e6e6" stroke="#e6e6e6" stroke-width="1.51"/><path d="M13,795L335,1123L398,662Z" fill="#a1a1a1" stroke="#a1a1a1" stroke-width="1.51"/><path d="M380,-537L35,-79L426,-52Z" fill="#dbdbdb" stroke="#dbdbdb" stroke-width="1.51"/><path d="M35,-79L370,372L426,-52Z" fill="#cecece" stroke="#cecece" stroke-width="1.51"/><path d="M335,1123L3,1171L354,1472Z" fill="#868686" stroke="#868686" stroke-width="1.51"/><path d="M-108,315L13,795L370,372Z" fill="#bcbcbc" stroke="#bcbcbc" stroke-width="1.51"/><path d="M370,372L13,795L398,662Z" fill="#afafaf" stroke="#afafaf" stroke-width="1.51"/><path d="M13,795L3,1171L335,1123Z" fill="#9a9a9a" stroke="#9a9a9a" stroke-width="1.51"/><path d="M3,1171L-87,1547L354,1472Z" fill="#7e7e7e" stroke="#7e7e7e" stroke-width="1.51"/><path d="M-445,384L-436,802L-108,315Z" fill="#c6c6c6" stroke="#c6c6c6" stroke-width="1.51"/><path d="M-473,-531L-465,-39L-28,-512Z" fill="#f1f1f1" stroke="#f1f1f1" stroke-width="1.51"/><path d="M-397,1127L-87,1547L3,1171Z" fill="#8e8e8e" stroke="#8e8e8e" stroke-width="1.51"/><path d="M-108,315L-436,802L13,795Z" fill="#bababa" stroke="#bababa" stroke-width="1.51"/><path d="M-397,1127L3,1171L13,795Z" fill="#a1a1a1" stroke="#a1a1a1" stroke-width="1.51"/><path d="M-436,802L-397,1127L13,795Z" fill="#acacac" stroke="#acacac" stroke-width="1.51"/><path d="M-28,-512L-465,-39L35,-79Z" fill="#e7e7e7" stroke="#e7e7e7" stroke-width="1.51"/><path d="M-465,-39L-108,315L35,-79Z" fill="#dcdcdc" stroke="#dcdcdc" stroke-width="1.51"/><path d="M-397,1127L-368,1554L-87,1547Z" fill="#868686" stroke="#868686" stroke-width="1.51"/><path d="M-465,-39L-445,384L-108,315Z" fill="#d9d9d9" stroke="#d9d9d9" stroke-width="1.51"/><path d="M-397,1127L-436,802L-368,1554Z" fill="#9e9e9e" stroke="#9e9e9e" stroke-width="1.51"/><path d="M-445,384L-465,-39L-436,802Z" fill="#d0d0d0" stroke="#d0d0d0" stroke-width="1.51"/></svg>